<svg width="16" height="11" viewBox="0 0 16 11" fill="none" xmlns="http://www.w3.org/2000/svg">
<path d="M15.0117 2.16797C14.8477 1.51172 14.3281 0.992188 13.6992 0.828125C12.5234 0.5 7.875 0.5 7.875 0.5C7.875 0.5 3.19922 0.5 2.02344 0.828125C1.39453 0.992188 0.875 1.51172 0.710938 2.16797C0.382812 3.31641 0.382812 5.77734 0.382812 5.77734C0.382812 5.77734 0.382812 8.21094 0.710938 9.38672C0.875 10.043 1.39453 10.5352 2.02344 10.6992C3.19922 11 7.875 11 7.875 11C7.875 11 12.5234 11 13.6992 10.6992C14.3281 10.5352 14.8477 10.043 15.0117 9.38672C15.3398 8.21094 15.3398 5.77734 15.3398 5.77734C15.3398 5.77734 15.3398 3.31641 15.0117 2.16797ZM6.34375 7.99219V3.5625L10.2266 5.77734L6.34375 7.99219Z" fill="white"/>
</svg>
